<mxfile host="app.diagrams.net" modified="2023-05-18T03:46:54.122Z" agent="Mozilla/5.0 (Windows NT 10.0; Win64; x64) AppleWebKit/537.36 (KHTML, like Gecko) Chrome/113.0.0.0 Safari/537.36" etag="kC5iW2nm_T_oMFebIWuF" version="21.3.2" type="github">
  <diagram name="PÃ¡gina-1" id="RE8ovrNAkX5qEmLPcPTc">
    <mxGraphModel dx="2345" dy="1784" grid="1" gridSize="10" guides="1" tooltips="1" connect="1" arrows="1" fold="1" page="1" pageScale="1" pageWidth="827" pageHeight="1169" math="0" shadow="0">
      <root>
        <mxCell id="0" />
        <mxCell id="1" parent="0" />
        <mxCell id="lNXxK2Av-nP2fyd3B0wV-1" value="Cuidador" style="whiteSpace=wrap;html=1;align=center;" parent="1" vertex="1">
          <mxGeometry x="-10" y="280" width="100" height="40" as="geometry" />
        </mxCell>
        <mxCell id="lNXxK2Av-nP2fyd3B0wV-2" value="Guia" style="whiteSpace=wrap;html=1;align=center;" parent="1" vertex="1">
          <mxGeometry x="429" y="280" width="100" height="40" as="geometry" />
        </mxCell>
        <mxCell id="lNXxK2Av-nP2fyd3B0wV-3" value="Itinerario" style="whiteSpace=wrap;html=1;align=center;" parent="1" vertex="1">
          <mxGeometry x="785" y="280" width="100" height="40" as="geometry" />
        </mxCell>
        <mxCell id="lNXxK2Av-nP2fyd3B0wV-4" value="Especie" style="whiteSpace=wrap;html=1;align=center;" parent="1" vertex="1">
          <mxGeometry x="-10" y="90" width="100" height="40" as="geometry" />
        </mxCell>
        <mxCell id="lNXxK2Av-nP2fyd3B0wV-5" value="Zona" style="whiteSpace=wrap;html=1;align=center;" parent="1" vertex="1">
          <mxGeometry x="364" y="90" width="100" height="40" as="geometry" />
        </mxCell>
        <mxCell id="lNXxK2Av-nP2fyd3B0wV-6" value="Habitat" style="whiteSpace=wrap;html=1;align=center;" parent="1" vertex="1">
          <mxGeometry x="720" y="90" width="100" height="40" as="geometry" />
        </mxCell>
        <mxCell id="lNXxK2Av-nP2fyd3B0wV-8" value="SeEncuentra" style="shape=rhombus;perimeter=rhombusPerimeter;whiteSpace=wrap;html=1;align=center;" parent="1" vertex="1">
          <mxGeometry x="170" y="80" width="120" height="60" as="geometry" />
        </mxCell>
        <mxCell id="lNXxK2Av-nP2fyd3B0wV-9" value="" style="endArrow=none;html=1;rounded=0;entryX=1;entryY=0.5;entryDx=0;entryDy=0;exitX=0;exitY=0.5;exitDx=0;exitDy=0;" parent="1" source="lNXxK2Av-nP2fyd3B0wV-8" target="lNXxK2Av-nP2fyd3B0wV-4" edge="1">
          <mxGeometry relative="1" as="geometry">
            <mxPoint x="80" y="170" as="sourcePoint" />
            <mxPoint x="240" y="170" as="targetPoint" />
          </mxGeometry>
        </mxCell>
        <mxCell id="lNXxK2Av-nP2fyd3B0wV-10" value="1" style="resizable=0;html=1;whiteSpace=wrap;align=right;verticalAlign=bottom;" parent="lNXxK2Av-nP2fyd3B0wV-9" connectable="0" vertex="1">
          <mxGeometry x="1" relative="1" as="geometry" />
        </mxCell>
        <mxCell id="lNXxK2Av-nP2fyd3B0wV-11" value="" style="endArrow=none;html=1;rounded=0;entryX=0;entryY=0.5;entryDx=0;entryDy=0;exitX=1;exitY=0.5;exitDx=0;exitDy=0;" parent="1" source="lNXxK2Av-nP2fyd3B0wV-8" target="lNXxK2Av-nP2fyd3B0wV-5" edge="1">
          <mxGeometry relative="1" as="geometry">
            <mxPoint x="350" y="120" as="sourcePoint" />
            <mxPoint x="450" y="100" as="targetPoint" />
          </mxGeometry>
        </mxCell>
        <mxCell id="lNXxK2Av-nP2fyd3B0wV-12" value="1" style="resizable=0;html=1;whiteSpace=wrap;align=right;verticalAlign=bottom;" parent="lNXxK2Av-nP2fyd3B0wV-11" connectable="0" vertex="1">
          <mxGeometry x="1" relative="1" as="geometry" />
        </mxCell>
        <mxCell id="lNXxK2Av-nP2fyd3B0wV-13" value="Tiene" style="shape=rhombus;perimeter=rhombusPerimeter;whiteSpace=wrap;html=1;align=center;" parent="1" vertex="1">
          <mxGeometry x="530" y="80" width="120" height="60" as="geometry" />
        </mxCell>
        <mxCell id="lNXxK2Av-nP2fyd3B0wV-14" value="" style="endArrow=none;html=1;rounded=0;entryX=0;entryY=0.5;entryDx=0;entryDy=0;exitX=1;exitY=0.5;exitDx=0;exitDy=0;" parent="1" source="lNXxK2Av-nP2fyd3B0wV-13" target="lNXxK2Av-nP2fyd3B0wV-6" edge="1">
          <mxGeometry relative="1" as="geometry">
            <mxPoint x="690" y="110" as="sourcePoint" />
            <mxPoint x="800" y="110" as="targetPoint" />
          </mxGeometry>
        </mxCell>
        <mxCell id="lNXxK2Av-nP2fyd3B0wV-15" value="N" style="resizable=0;html=1;whiteSpace=wrap;align=right;verticalAlign=bottom;" parent="lNXxK2Av-nP2fyd3B0wV-14" connectable="0" vertex="1">
          <mxGeometry x="1" relative="1" as="geometry" />
        </mxCell>
        <mxCell id="lNXxK2Av-nP2fyd3B0wV-18" value="" style="endArrow=none;html=1;rounded=0;exitX=0;exitY=0.5;exitDx=0;exitDy=0;entryX=1;entryY=0.5;entryDx=0;entryDy=0;" parent="1" source="lNXxK2Av-nP2fyd3B0wV-13" target="lNXxK2Av-nP2fyd3B0wV-5" edge="1">
          <mxGeometry relative="1" as="geometry">
            <mxPoint x="490" y="190" as="sourcePoint" />
            <mxPoint x="650" y="190" as="targetPoint" />
          </mxGeometry>
        </mxCell>
        <mxCell id="lNXxK2Av-nP2fyd3B0wV-19" value="1" style="resizable=0;html=1;whiteSpace=wrap;align=right;verticalAlign=bottom;" parent="lNXxK2Av-nP2fyd3B0wV-18" connectable="0" vertex="1">
          <mxGeometry x="1" relative="1" as="geometry" />
        </mxCell>
        <mxCell id="lNXxK2Av-nP2fyd3B0wV-20" value="" style="endArrow=none;html=1;rounded=0;entryX=0.5;entryY=1;entryDx=0;entryDy=0;exitX=0.5;exitY=0;exitDx=0;exitDy=0;" parent="1" source="lNXxK2Av-nP2fyd3B0wV-22" target="lNXxK2Av-nP2fyd3B0wV-4" edge="1">
          <mxGeometry relative="1" as="geometry">
            <mxPoint x="40" y="200" as="sourcePoint" />
            <mxPoint x="150" y="200" as="targetPoint" />
          </mxGeometry>
        </mxCell>
        <mxCell id="lNXxK2Av-nP2fyd3B0wV-21" value="N" style="resizable=0;html=1;whiteSpace=wrap;align=right;verticalAlign=bottom;" parent="lNXxK2Av-nP2fyd3B0wV-20" connectable="0" vertex="1">
          <mxGeometry x="1" relative="1" as="geometry" />
        </mxCell>
        <mxCell id="lNXxK2Av-nP2fyd3B0wV-22" value="ACargo" style="shape=rhombus;perimeter=rhombusPerimeter;whiteSpace=wrap;html=1;align=center;" parent="1" vertex="1">
          <mxGeometry x="-20" y="180" width="120" height="60" as="geometry" />
        </mxCell>
        <mxCell id="lNXxK2Av-nP2fyd3B0wV-24" value="" style="endArrow=none;html=1;rounded=0;exitX=0.5;exitY=1;exitDx=0;exitDy=0;entryX=0.5;entryY=0;entryDx=0;entryDy=0;" parent="1" source="lNXxK2Av-nP2fyd3B0wV-22" target="lNXxK2Av-nP2fyd3B0wV-1" edge="1">
          <mxGeometry relative="1" as="geometry">
            <mxPoint x="20" y="310" as="sourcePoint" />
            <mxPoint x="180" y="310" as="targetPoint" />
          </mxGeometry>
        </mxCell>
        <mxCell id="lNXxK2Av-nP2fyd3B0wV-25" value="N" style="resizable=0;html=1;whiteSpace=wrap;align=right;verticalAlign=bottom;" parent="lNXxK2Av-nP2fyd3B0wV-24" connectable="0" vertex="1">
          <mxGeometry x="1" relative="1" as="geometry" />
        </mxCell>
        <mxCell id="lNXxK2Av-nP2fyd3B0wV-31" value="Realiza" style="shape=rhombus;perimeter=rhombusPerimeter;whiteSpace=wrap;html=1;align=center;" parent="1" vertex="1">
          <mxGeometry x="595" y="270" width="120" height="60" as="geometry" />
        </mxCell>
        <mxCell id="lNXxK2Av-nP2fyd3B0wV-34" value="" style="endArrow=none;html=1;rounded=0;entryX=1;entryY=0.5;entryDx=0;entryDy=0;exitX=0;exitY=0.5;exitDx=0;exitDy=0;" parent="1" source="lNXxK2Av-nP2fyd3B0wV-31" target="lNXxK2Av-nP2fyd3B0wV-2" edge="1">
          <mxGeometry relative="1" as="geometry">
            <mxPoint x="395" y="300" as="sourcePoint" />
            <mxPoint x="555" y="300" as="targetPoint" />
          </mxGeometry>
        </mxCell>
        <mxCell id="lNXxK2Av-nP2fyd3B0wV-35" value="1" style="resizable=0;html=1;whiteSpace=wrap;align=right;verticalAlign=bottom;" parent="lNXxK2Av-nP2fyd3B0wV-34" connectable="0" vertex="1">
          <mxGeometry x="1" relative="1" as="geometry" />
        </mxCell>
        <mxCell id="lNXxK2Av-nP2fyd3B0wV-36" value="" style="endArrow=none;html=1;rounded=0;entryX=0;entryY=0.5;entryDx=0;entryDy=0;exitX=1;exitY=0.5;exitDx=0;exitDy=0;" parent="1" source="lNXxK2Av-nP2fyd3B0wV-31" target="lNXxK2Av-nP2fyd3B0wV-3" edge="1">
          <mxGeometry relative="1" as="geometry">
            <mxPoint x="775" y="360" as="sourcePoint" />
            <mxPoint x="875" y="380" as="targetPoint" />
          </mxGeometry>
        </mxCell>
        <mxCell id="lNXxK2Av-nP2fyd3B0wV-37" value="N" style="resizable=0;html=1;whiteSpace=wrap;align=right;verticalAlign=bottom;" parent="lNXxK2Av-nP2fyd3B0wV-36" connectable="0" vertex="1">
          <mxGeometry x="1" relative="1" as="geometry" />
        </mxCell>
        <mxCell id="lNXxK2Av-nP2fyd3B0wV-38" value="IdEspecie" style="ellipse;whiteSpace=wrap;html=1;align=center;fontStyle=4;" parent="1" vertex="1">
          <mxGeometry x="-90" y="-90" width="100" height="60" as="geometry" />
        </mxCell>
        <mxCell id="lNXxK2Av-nP2fyd3B0wV-40" value="" style="edgeStyle=entityRelationEdgeStyle;fontSize=12;html=1;endArrow=ERmandOne;startArrow=ERmandOne;rounded=0;entryX=0.5;entryY=1;entryDx=0;entryDy=0;exitX=0.5;exitY=0;exitDx=0;exitDy=0;" parent="1" source="lNXxK2Av-nP2fyd3B0wV-4" target="lNXxK2Av-nP2fyd3B0wV-38" edge="1">
          <mxGeometry width="100" height="100" relative="1" as="geometry">
            <mxPoint x="50" y="90" as="sourcePoint" />
            <mxPoint x="150" y="-10" as="targetPoint" />
          </mxGeometry>
        </mxCell>
        <mxCell id="lNXxK2Av-nP2fyd3B0wV-41" value="Nombre" style="ellipse;whiteSpace=wrap;html=1;align=center;" parent="1" vertex="1">
          <mxGeometry x="60" y="-160" width="100" height="60" as="geometry" />
        </mxCell>
        <mxCell id="lNXxK2Av-nP2fyd3B0wV-42" value="NombreCientifico" style="ellipse;whiteSpace=wrap;html=1;align=center;" parent="1" vertex="1">
          <mxGeometry x="90" y="-70" width="110" height="60" as="geometry" />
        </mxCell>
        <mxCell id="lNXxK2Av-nP2fyd3B0wV-43" value="" style="edgeStyle=entityRelationEdgeStyle;fontSize=12;html=1;endArrow=ERmandOne;rounded=0;entryX=0;entryY=0.5;entryDx=0;entryDy=0;" parent="1" target="lNXxK2Av-nP2fyd3B0wV-42" edge="1">
          <mxGeometry width="100" height="100" relative="1" as="geometry">
            <mxPoint x="10" y="90" as="sourcePoint" />
            <mxPoint x="130" y="10" as="targetPoint" />
          </mxGeometry>
        </mxCell>
        <mxCell id="lNXxK2Av-nP2fyd3B0wV-44" value="" style="edgeStyle=entityRelationEdgeStyle;fontSize=12;html=1;endArrow=ERmandOne;rounded=0;entryX=0;entryY=0.5;entryDx=0;entryDy=0;" parent="1" target="lNXxK2Av-nP2fyd3B0wV-41" edge="1">
          <mxGeometry width="100" height="100" relative="1" as="geometry">
            <mxPoint y="90" as="sourcePoint" />
            <mxPoint x="100" y="-10" as="targetPoint" />
          </mxGeometry>
        </mxCell>
        <mxCell id="lNXxK2Av-nP2fyd3B0wV-45" value="IdZona" style="ellipse;whiteSpace=wrap;html=1;align=center;fontStyle=4;" parent="1" vertex="1">
          <mxGeometry x="190" y="-120" width="110" height="50" as="geometry" />
        </mxCell>
        <mxCell id="lNXxK2Av-nP2fyd3B0wV-46" value="" style="edgeStyle=entityRelationEdgeStyle;fontSize=12;html=1;endArrow=ERmandOne;startArrow=ERmandOne;rounded=0;exitX=0;exitY=0.25;exitDx=0;exitDy=0;" parent="1" source="lNXxK2Av-nP2fyd3B0wV-5" target="lNXxK2Av-nP2fyd3B0wV-45" edge="1">
          <mxGeometry width="100" height="100" relative="1" as="geometry">
            <mxPoint x="380" y="90" as="sourcePoint" />
            <mxPoint x="480" y="-10" as="targetPoint" />
          </mxGeometry>
        </mxCell>
        <mxCell id="lNXxK2Av-nP2fyd3B0wV-47" value="NombreZona" style="ellipse;whiteSpace=wrap;html=1;align=center;" parent="1" vertex="1">
          <mxGeometry x="470" y="-80" width="100" height="40" as="geometry" />
        </mxCell>
        <mxCell id="lNXxK2Av-nP2fyd3B0wV-48" value="Ubicacion" style="ellipse;whiteSpace=wrap;html=1;align=center;" parent="1" vertex="1">
          <mxGeometry x="520" y="-10" width="100" height="40" as="geometry" />
        </mxCell>
        <mxCell id="lNXxK2Av-nP2fyd3B0wV-50" value="" style="edgeStyle=entityRelationEdgeStyle;fontSize=12;html=1;endArrow=ERmandOne;rounded=0;exitX=0.25;exitY=0;exitDx=0;exitDy=0;entryX=0.05;entryY=0.7;entryDx=0;entryDy=0;entryPerimeter=0;" parent="1" source="lNXxK2Av-nP2fyd3B0wV-5" target="lNXxK2Av-nP2fyd3B0wV-47" edge="1">
          <mxGeometry width="100" height="100" relative="1" as="geometry">
            <mxPoint x="380" y="40" as="sourcePoint" />
            <mxPoint x="470" y="-60" as="targetPoint" />
          </mxGeometry>
        </mxCell>
        <mxCell id="lNXxK2Av-nP2fyd3B0wV-51" value="" style="edgeStyle=entityRelationEdgeStyle;fontSize=12;html=1;endArrow=ERmandOne;rounded=0;entryX=0;entryY=0.5;entryDx=0;entryDy=0;" parent="1" target="lNXxK2Av-nP2fyd3B0wV-48" edge="1">
          <mxGeometry width="100" height="100" relative="1" as="geometry">
            <mxPoint x="430" y="90" as="sourcePoint" />
            <mxPoint x="530" y="-10" as="targetPoint" />
          </mxGeometry>
        </mxCell>
        <mxCell id="lNXxK2Av-nP2fyd3B0wV-52" value="IdHabitat" style="ellipse;whiteSpace=wrap;html=1;align=center;fontStyle=4;" parent="1" vertex="1">
          <mxGeometry x="620" y="-70" width="100" height="40" as="geometry" />
        </mxCell>
        <mxCell id="lNXxK2Av-nP2fyd3B0wV-53" value="Tipo" style="ellipse;whiteSpace=wrap;html=1;align=center;" parent="1" vertex="1">
          <mxGeometry x="830" y="-20" width="100" height="40" as="geometry" />
        </mxCell>
        <mxCell id="lNXxK2Av-nP2fyd3B0wV-54" value="Descripcion" style="ellipse;whiteSpace=wrap;html=1;align=center;" parent="1" vertex="1">
          <mxGeometry x="890" y="50" width="100" height="40" as="geometry" />
        </mxCell>
        <mxCell id="lNXxK2Av-nP2fyd3B0wV-55" value="" style="edgeStyle=entityRelationEdgeStyle;fontSize=12;html=1;endArrow=ERmandOne;rounded=0;exitX=0.5;exitY=0;exitDx=0;exitDy=0;entryX=0.074;entryY=0.76;entryDx=0;entryDy=0;entryPerimeter=0;" parent="1" source="lNXxK2Av-nP2fyd3B0wV-6" target="lNXxK2Av-nP2fyd3B0wV-53" edge="1">
          <mxGeometry width="100" height="100" relative="1" as="geometry">
            <mxPoint x="820" y="150" as="sourcePoint" />
            <mxPoint x="920" y="50" as="targetPoint" />
          </mxGeometry>
        </mxCell>
        <mxCell id="lNXxK2Av-nP2fyd3B0wV-56" value="" style="edgeStyle=entityRelationEdgeStyle;fontSize=12;html=1;endArrow=ERmandOne;startArrow=ERmandOne;rounded=0;entryX=1;entryY=0.5;entryDx=0;entryDy=0;" parent="1" target="lNXxK2Av-nP2fyd3B0wV-52" edge="1">
          <mxGeometry width="100" height="100" relative="1" as="geometry">
            <mxPoint x="760" y="90" as="sourcePoint" />
            <mxPoint x="920" y="50" as="targetPoint" />
          </mxGeometry>
        </mxCell>
        <mxCell id="lNXxK2Av-nP2fyd3B0wV-57" value="" style="edgeStyle=entityRelationEdgeStyle;fontSize=12;html=1;endArrow=ERmandOne;rounded=0;entryX=0;entryY=0.5;entryDx=0;entryDy=0;exitX=1;exitY=0.75;exitDx=0;exitDy=0;" parent="1" source="lNXxK2Av-nP2fyd3B0wV-6" target="lNXxK2Av-nP2fyd3B0wV-54" edge="1">
          <mxGeometry width="100" height="100" relative="1" as="geometry">
            <mxPoint x="820" y="150" as="sourcePoint" />
            <mxPoint x="920" y="50" as="targetPoint" />
          </mxGeometry>
        </mxCell>
        <mxCell id="lNXxK2Av-nP2fyd3B0wV-58" value="Duracion" style="ellipse;whiteSpace=wrap;html=1;align=center;" parent="1" vertex="1">
          <mxGeometry x="870" y="180" width="100" height="40" as="geometry" />
        </mxCell>
        <mxCell id="lNXxK2Av-nP2fyd3B0wV-59" value="" style="edgeStyle=entityRelationEdgeStyle;fontSize=12;html=1;endArrow=ERmandOne;rounded=0;entryX=0;entryY=0.5;entryDx=0;entryDy=0;" parent="1" target="lNXxK2Av-nP2fyd3B0wV-58" edge="1">
          <mxGeometry width="100" height="100" relative="1" as="geometry">
            <mxPoint x="795" y="280" as="sourcePoint" />
            <mxPoint x="895" y="240" as="targetPoint" />
          </mxGeometry>
        </mxCell>
        <mxCell id="lNXxK2Av-nP2fyd3B0wV-60" value="Recorrido" style="ellipse;whiteSpace=wrap;html=1;align=center;" parent="1" vertex="1">
          <mxGeometry x="855" y="370" width="80" height="40" as="geometry" />
        </mxCell>
        <mxCell id="lNXxK2Av-nP2fyd3B0wV-61" value="" style="edgeStyle=entityRelationEdgeStyle;fontSize=12;html=1;endArrow=ERmandOne;rounded=0;entryX=0;entryY=0.5;entryDx=0;entryDy=0;exitX=0;exitY=1;exitDx=0;exitDy=0;" parent="1" source="lNXxK2Av-nP2fyd3B0wV-3" target="lNXxK2Av-nP2fyd3B0wV-60" edge="1">
          <mxGeometry width="100" height="100" relative="1" as="geometry">
            <mxPoint x="865" y="400" as="sourcePoint" />
            <mxPoint x="965" y="300" as="targetPoint" />
          </mxGeometry>
        </mxCell>
        <mxCell id="lNXxK2Av-nP2fyd3B0wV-62" value="Sector" style="ellipse;whiteSpace=wrap;html=1;align=center;" parent="1" vertex="1">
          <mxGeometry x="550" y="390" width="100" height="40" as="geometry" />
        </mxCell>
        <mxCell id="lNXxK2Av-nP2fyd3B0wV-63" value="" style="edgeStyle=entityRelationEdgeStyle;fontSize=12;html=1;endArrow=ERmandOne;rounded=0;exitX=0;exitY=0.75;exitDx=0;exitDy=0;entryX=1;entryY=0.5;entryDx=0;entryDy=0;" parent="1" source="lNXxK2Av-nP2fyd3B0wV-3" target="lNXxK2Av-nP2fyd3B0wV-62" edge="1">
          <mxGeometry width="100" height="100" relative="1" as="geometry">
            <mxPoint x="845" y="320" as="sourcePoint" />
            <mxPoint x="715" y="410" as="targetPoint" />
          </mxGeometry>
        </mxCell>
        <mxCell id="lNXxK2Av-nP2fyd3B0wV-64" value="IdCuidador" style="ellipse;whiteSpace=wrap;html=1;align=center;fontStyle=4;" parent="1" vertex="1">
          <mxGeometry x="-160" y="370" width="100" height="40" as="geometry" />
        </mxCell>
        <mxCell id="lNXxK2Av-nP2fyd3B0wV-65" value="" style="edgeStyle=entityRelationEdgeStyle;fontSize=12;html=1;endArrow=ERmandOne;startArrow=ERmandOne;rounded=0;exitX=1;exitY=0.5;exitDx=0;exitDy=0;entryX=0.5;entryY=1;entryDx=0;entryDy=0;" parent="1" source="lNXxK2Av-nP2fyd3B0wV-64" target="lNXxK2Av-nP2fyd3B0wV-1" edge="1">
          <mxGeometry width="100" height="100" relative="1" as="geometry">
            <mxPoint x="-140" y="400" as="sourcePoint" />
            <mxPoint x="-40" y="300" as="targetPoint" />
          </mxGeometry>
        </mxCell>
        <mxCell id="lNXxK2Av-nP2fyd3B0wV-66" value="Nombre" style="ellipse;whiteSpace=wrap;html=1;align=center;" parent="1" vertex="1">
          <mxGeometry x="-90" y="450" width="100" height="40" as="geometry" />
        </mxCell>
        <mxCell id="lNXxK2Av-nP2fyd3B0wV-67" value="" style="edgeStyle=entityRelationEdgeStyle;fontSize=12;html=1;endArrow=ERmandOne;rounded=0;exitX=0.5;exitY=0;exitDx=0;exitDy=0;" parent="1" source="lNXxK2Av-nP2fyd3B0wV-66" edge="1">
          <mxGeometry width="100" height="100" relative="1" as="geometry">
            <mxPoint x="-140" y="400" as="sourcePoint" />
            <mxPoint x="60" y="320" as="targetPoint" />
          </mxGeometry>
        </mxCell>
        <mxCell id="lNXxK2Av-nP2fyd3B0wV-68" value="Especialidad" style="ellipse;whiteSpace=wrap;html=1;align=center;" parent="1" vertex="1">
          <mxGeometry x="100" y="410" width="100" height="40" as="geometry" />
        </mxCell>
        <mxCell id="lNXxK2Av-nP2fyd3B0wV-69" value="" style="edgeStyle=entityRelationEdgeStyle;fontSize=12;html=1;endArrow=ERmandOne;rounded=0;entryX=0.5;entryY=0;entryDx=0;entryDy=0;exitX=1;exitY=0.5;exitDx=0;exitDy=0;" parent="1" source="lNXxK2Av-nP2fyd3B0wV-1" target="lNXxK2Av-nP2fyd3B0wV-68" edge="1">
          <mxGeometry width="100" height="100" relative="1" as="geometry">
            <mxPoint x="140" y="410" as="sourcePoint" />
            <mxPoint x="-40" y="300" as="targetPoint" />
          </mxGeometry>
        </mxCell>
        <mxCell id="lNXxK2Av-nP2fyd3B0wV-70" value="IdGuia" style="ellipse;whiteSpace=wrap;html=1;align=center;fontStyle=4;" parent="1" vertex="1">
          <mxGeometry x="245" y="280" width="100" height="40" as="geometry" />
        </mxCell>
        <mxCell id="lNXxK2Av-nP2fyd3B0wV-71" value="" style="edgeStyle=entityRelationEdgeStyle;fontSize=12;html=1;endArrow=ERmandOne;startArrow=ERmandOne;rounded=0;exitX=1;exitY=0.5;exitDx=0;exitDy=0;entryX=0;entryY=0.5;entryDx=0;entryDy=0;" parent="1" source="lNXxK2Av-nP2fyd3B0wV-70" target="lNXxK2Av-nP2fyd3B0wV-2" edge="1">
          <mxGeometry width="100" height="100" relative="1" as="geometry">
            <mxPoint x="465" y="400" as="sourcePoint" />
            <mxPoint x="415" y="310" as="targetPoint" />
          </mxGeometry>
        </mxCell>
        <mxCell id="lNXxK2Av-nP2fyd3B0wV-72" value="Nombre" style="ellipse;whiteSpace=wrap;html=1;align=center;" parent="1" vertex="1">
          <mxGeometry x="290" y="380" width="100" height="40" as="geometry" />
        </mxCell>
        <mxCell id="lNXxK2Av-nP2fyd3B0wV-73" value="" style="edgeStyle=entityRelationEdgeStyle;fontSize=12;html=1;endArrow=ERmandOne;rounded=0;exitX=1;exitY=0.5;exitDx=0;exitDy=0;entryX=0.5;entryY=1;entryDx=0;entryDy=0;" parent="1" source="lNXxK2Av-nP2fyd3B0wV-72" target="lNXxK2Av-nP2fyd3B0wV-2" edge="1">
          <mxGeometry width="100" height="100" relative="1" as="geometry">
            <mxPoint x="405.00000000001046" y="400" as="sourcePoint" />
            <mxPoint x="565" y="300" as="targetPoint" />
          </mxGeometry>
        </mxCell>
        <mxCell id="lNXxK2Av-nP2fyd3B0wV-74" value="Caracteristicas" style="ellipse;shape=doubleEllipse;margin=3;whiteSpace=wrap;html=1;align=center;" parent="1" vertex="1">
          <mxGeometry x="-190" y="70" width="100" height="40" as="geometry" />
        </mxCell>
        <mxCell id="lNXxK2Av-nP2fyd3B0wV-75" value="" style="edgeStyle=entityRelationEdgeStyle;fontSize=12;html=1;endArrow=ERoneToMany;rounded=0;entryX=1;entryY=0.5;entryDx=0;entryDy=0;exitX=0;exitY=0.75;exitDx=0;exitDy=0;" parent="1" source="lNXxK2Av-nP2fyd3B0wV-4" target="lNXxK2Av-nP2fyd3B0wV-74" edge="1">
          <mxGeometry width="100" height="100" relative="1" as="geometry">
            <mxPoint x="-40" y="100" as="sourcePoint" />
            <mxPoint x="60" as="targetPoint" />
          </mxGeometry>
        </mxCell>
      </root>
    </mxGraphModel>
  </diagram>
</mxfile>
